<svg width="64" height="20" viewBox="0 0 64 20" fill="none" xmlns="http://www.w3.org/2000/svg">
<path d="M14.6494 16.7539C13.9902 17.5433 13.0584 18.1577 11.854 18.5972C10.6496 19.0285 9.31494 19.2441 7.8501 19.2441C6.31201 19.2441 4.9611 18.9105 3.79736 18.2432C2.64176 17.5677 1.74658 16.5911 1.11182 15.3135C0.485189 14.0358 0.163737 12.5343 0.147461 10.8091V9.60059C0.147461 7.8265 0.444499 6.29248 1.03857 4.99854C1.64079 3.69645 2.50342 2.70361 3.62646 2.02002C4.75765 1.32829 6.08008 0.982422 7.59375 0.982422C9.7015 0.982422 11.3494 1.48698 12.5376 2.49609C13.7257 3.49707 14.4297 4.95785 14.6494 6.87842H11.085C10.9222 5.86117 10.5601 5.11654 9.99854 4.64453C9.44515 4.17253 8.68018 3.93652 7.70361 3.93652C6.4585 3.93652 5.51042 4.40446 4.85938 5.34033C4.20833 6.2762 3.87874 7.66781 3.87061 9.51514V10.6504C3.87061 12.514 4.22461 13.9219 4.93262 14.874C5.64062 15.8262 6.67822 16.3022 8.04541 16.3022C9.42074 16.3022 10.4014 16.0093 10.9873 15.4233V12.3594H7.65479V9.66162H14.6494V16.7539ZM25.0498 19C24.887 18.6826 24.769 18.2879 24.6958 17.8159C23.8413 18.7681 22.7305 19.2441 21.3633 19.2441C20.0693 19.2441 18.9951 18.8698 18.1406 18.1211C17.2943 17.3724 16.8711 16.4284 16.8711 15.2891C16.8711 13.8893 17.3879 12.8151 18.4214 12.0664C19.4631 11.3177 20.9645 10.9393 22.9258 10.9312H24.5493V10.1743C24.5493 9.56396 24.3906 9.07568 24.0732 8.70947C23.764 8.34326 23.2716 8.16016 22.5962 8.16016C22.0021 8.16016 21.5342 8.30257 21.1924 8.5874C20.8587 8.87223 20.6919 9.26286 20.6919 9.75928H17.1641C17.1641 8.9943 17.4001 8.2863 17.8721 7.63525C18.3441 6.98421 19.0114 6.47559 19.874 6.10938C20.7367 5.73503 21.7051 5.54785 22.7793 5.54785C24.4069 5.54785 25.6968 5.95882 26.6489 6.78076C27.6092 7.59456 28.0894 8.74202 28.0894 10.2231V15.9482C28.0975 17.2015 28.2725 18.1496 28.6143 18.7925V19H25.0498ZM22.1323 16.5464C22.6532 16.5464 23.1333 16.4325 23.5728 16.2046C24.0122 15.9686 24.3377 15.6553 24.5493 15.2646V12.9941H23.231C21.465 12.9941 20.5251 13.6045 20.4111 14.8252L20.3989 15.0327C20.3989 15.4722 20.5535 15.8343 20.8628 16.1191C21.172 16.404 21.5952 16.5464 22.1323 16.5464ZM34.1074 5.79199L34.2173 7.26904C35.1532 6.12158 36.4186 5.54785 38.0137 5.54785C39.7145 5.54785 40.8823 6.21924 41.5171 7.56201C42.4448 6.21924 43.7673 5.54785 45.4844 5.54785C46.9167 5.54785 47.9827 5.96696 48.6826 6.80518C49.3825 7.63525 49.7324 8.88851 49.7324 10.5649V19H46.1924V10.5771C46.1924 9.82845 46.0459 9.2832 45.7529 8.94141C45.46 8.59147 44.9432 8.4165 44.2026 8.4165C43.1447 8.4165 42.4123 8.92106 42.0054 9.93018L42.0176 19H38.4897V10.5894C38.4897 9.82438 38.3392 9.271 38.0381 8.9292C37.737 8.5874 37.2243 8.4165 36.5 8.4165C35.499 8.4165 34.7747 8.83154 34.3271 9.66162V19H30.7993V5.79199H34.1074ZM58.5337 19.2441C56.5968 19.2441 55.0181 18.6501 53.7974 17.4619C52.5848 16.2738 51.9785 14.6909 51.9785 12.7134V12.3716C51.9785 11.0451 52.2349 9.861 52.7476 8.81934C53.2603 7.76953 53.9845 6.96387 54.9204 6.40234C55.8644 5.83268 56.9386 5.54785 58.1431 5.54785C59.9497 5.54785 61.3698 6.11751 62.4033 7.25684C63.445 8.39616 63.9658 10.0116 63.9658 12.103V13.5435H55.5552C55.6691 14.4061 56.0109 15.0978 56.5806 15.6187C57.1584 16.1395 57.8867 16.3999 58.7656 16.3999C60.1247 16.3999 61.1867 15.9076 61.9517 14.9229L63.6851 16.8638C63.1561 17.6125 62.4399 18.1984 61.5366 18.6216C60.6333 19.0366 59.6323 19.2441 58.5337 19.2441ZM58.1309 8.4043C57.431 8.4043 56.8613 8.6403 56.4219 9.1123C55.9906 9.58431 55.7139 10.2598 55.5918 11.1387H60.499V10.8579C60.4827 10.0767 60.2712 9.47445 59.8643 9.05127C59.4574 8.61995 58.8796 8.4043 58.1309 8.4043Z" fill="#F3F3F3"/>
</svg>
