<svg width="56" height="25" viewBox="0 0 56 25" fill="none" xmlns="http://www.w3.org/2000/svg">
<path d="M7.2998 11.0776C5.28971 10.4998 3.82487 9.79183 2.90527 8.95361C1.99382 8.10726 1.53809 7.06559 1.53809 5.82861C1.53809 4.42887 2.09554 3.27327 3.21045 2.36182C4.3335 1.44222 5.7902 0.982422 7.58057 0.982422C8.80127 0.982422 9.8877 1.21842 10.8398 1.69043C11.8001 2.16243 12.5407 2.81348 13.0615 3.64355C13.5905 4.47363 13.855 5.38102 13.855 6.36572H11.499C11.499 5.2915 11.1572 4.44922 10.4736 3.83887C9.79004 3.22038 8.82568 2.91113 7.58057 2.91113C6.42497 2.91113 5.52165 3.16748 4.87061 3.68018C4.2277 4.18473 3.90625 4.88867 3.90625 5.79199C3.90625 6.51628 4.21143 7.1307 4.82178 7.63525C5.44027 8.13167 6.486 8.5874 7.95898 9.00244C9.4401 9.41748 10.5957 9.87728 11.4258 10.3818C12.264 10.8783 12.8825 11.4601 13.2812 12.1274C13.6882 12.7948 13.8916 13.5801 13.8916 14.4834C13.8916 15.9238 13.3301 17.0794 12.207 17.9502C11.084 18.8128 9.58252 19.2441 7.70264 19.2441C6.48193 19.2441 5.34261 19.0122 4.28467 18.5483C3.22673 18.0763 2.40885 17.4334 1.83105 16.6196C1.26139 15.8058 0.976562 14.8822 0.976562 13.8486H3.33252C3.33252 14.9229 3.72721 15.7733 4.5166 16.3999C5.31413 17.0184 6.37614 17.3276 7.70264 17.3276C8.93962 17.3276 9.8877 17.0754 10.5469 16.5708C11.2061 16.0662 11.5356 15.3786 11.5356 14.5078C11.5356 13.637 11.2305 12.9657 10.6201 12.4937C10.0098 12.0135 8.90299 11.5415 7.2998 11.0776ZM18.811 7.39111C19.812 6.16227 21.1141 5.54785 22.7173 5.54785C25.5086 5.54785 26.9165 7.12256 26.9409 10.272V19H24.6826V10.2598C24.6745 9.30762 24.4548 8.60368 24.0234 8.14795C23.6003 7.69222 22.937 7.46436 22.0337 7.46436C21.3013 7.46436 20.6584 7.65967 20.105 8.05029C19.5516 8.44092 19.1203 8.95361 18.811 9.58838V19H16.5527V0.25H18.811V7.39111ZM29.7241 12.2739C29.7241 10.98 29.9764 9.81624 30.481 8.78271C30.9937 7.74919 31.7017 6.95166 32.605 6.39014C33.5164 5.82861 34.554 5.54785 35.7178 5.54785C37.5163 5.54785 38.9689 6.17041 40.0757 7.41553C41.1906 8.66064 41.748 10.3167 41.748 12.3838V12.5425C41.748 13.8283 41.4998 14.9839 41.0034 16.0093C40.5151 17.0265 39.8112 17.82 38.8916 18.3896C37.9801 18.9593 36.9303 19.2441 35.7422 19.2441C33.9518 19.2441 32.4992 18.6216 31.3843 17.3765C30.2775 16.1313 29.7241 14.4834 29.7241 12.4326V12.2739ZM31.9946 12.5425C31.9946 14.0073 32.3324 15.1833 33.0078 16.0703C33.6914 16.9574 34.6029 17.4009 35.7422 17.4009C36.8896 17.4009 37.8011 16.9533 38.4766 16.0581C39.152 15.1548 39.4897 13.8934 39.4897 12.2739C39.4897 10.8254 39.1439 9.65348 38.4521 8.7583C37.7686 7.85498 36.8571 7.40332 35.7178 7.40332C34.6029 7.40332 33.7036 7.84684 33.02 8.73389C32.3364 9.62093 31.9946 10.8905 31.9946 12.5425ZM55.7373 12.5425C55.7373 14.5526 55.2775 16.172 54.3579 17.4009C53.4383 18.6297 52.1932 19.2441 50.6226 19.2441C49.0194 19.2441 47.758 18.7355 46.8384 17.7183V24.0781H44.5801V5.79199H46.6431L46.7529 7.25684C47.6725 6.11751 48.9502 5.54785 50.5859 5.54785C52.1729 5.54785 53.4261 6.146 54.3457 7.34229C55.2734 8.53857 55.7373 10.2028 55.7373 12.335V12.5425ZM53.479 12.2861C53.479 10.7969 53.1616 9.62093 52.5269 8.7583C51.8921 7.89567 51.0213 7.46436 49.9146 7.46436C48.5474 7.46436 47.522 8.07064 46.8384 9.2832V15.5942C47.5138 16.7987 48.5474 17.4009 49.939 17.4009C51.0213 17.4009 51.8799 16.9736 52.5146 16.1191C53.1576 15.2565 53.479 13.9788 53.479 12.2861Z" fill="#D01418"/>
</svg>
