<svg width="11" height="11" viewBox="0 0 11 11" fill="none" xmlns="http://www.w3.org/2000/svg">
<path d="M9.15358 3.69617H6.9499V1.4925C6.9499 1.22539 6.74957 1.02505 6.48246 1.02505H4.74623C4.47912 1.02505 4.27878 1.22539 4.27878 1.4925V3.69617H2.07511C1.808 3.69617 1.60767 3.89651 1.60767 4.16362V5.89985C1.60767 6.16696 1.808 6.36729 2.07511 6.36729H4.27878V8.57096C4.27878 8.83808 4.47912 9.03841 4.74623 9.03841H6.48246C6.74957 9.03841 6.9499 8.83808 6.9499 8.57096V6.36729H9.15358C9.42069 6.36729 9.62102 6.16696 9.62102 5.89985V4.16362C9.62102 3.89651 9.42069 3.69617 9.15358 3.69617Z" fill="#283238" stroke="#38454F" stroke-width="2" stroke-miterlimit="10" stroke-linecap="round"/>
</svg>
